<svg  xmlns="http://www.w3.org/2000/svg" width="32" height="32" viewBox="0 0 32 32">
  <g id="Group_18" data-name="Group 18" transform="translate(-23 -26)">
    <g id="Rectangle_256" data-name="Rectangle 256" transform="translate(23 26)" fill="none" stroke="#fff" stroke-width="1">
      <path d="M0,0H12a3,3,0,0,1,3,3v9a3,3,0,0,1-3,3H3a3,3,0,0,1-3-3V0A0,0,0,0,1,0,0Z" stroke="none"/>
      <path d="M1,.5H12A2.5,2.5,0,0,1,14.5,3v9A2.5,2.5,0,0,1,12,14.5H3A2.5,2.5,0,0,1,.5,12V1A.5.5,0,0,1,1,.5Z" fill="none"/>
    </g>
    <g id="Rectangle_256-2" data-name="Rectangle 256" transform="translate(40 26)" fill="none" stroke="#fff" stroke-width="1">
      <path d="M3,0H15a0,0,0,0,1,0,0V12a3,3,0,0,1-3,3H3a3,3,0,0,1-3-3V3A3,3,0,0,1,3,0Z" stroke="none"/>
      <path d="M3,.5H14a.5.5,0,0,1,.5.5V12A2.5,2.5,0,0,1,12,14.5H3A2.5,2.5,0,0,1,.5,12V3A2.5,2.5,0,0,1,3,.5Z" fill="none"/>
    </g>
    <g id="Rectangle_256-3" data-name="Rectangle 256" transform="translate(23 43)" fill="none" stroke="#fff" stroke-width="1">
      <path d="M3,0h9a3,3,0,0,1,3,3v9a3,3,0,0,1-3,3H0a0,0,0,0,1,0,0V3A3,3,0,0,1,3,0Z" stroke="none"/>
      <path d="M3,.5h9A2.5,2.5,0,0,1,14.5,3v9A2.5,2.5,0,0,1,12,14.5H1A.5.5,0,0,1,.5,14V3A2.5,2.5,0,0,1,3,.5Z" fill="none"/>
    </g>
    <g id="Rectangle_256-4" data-name="Rectangle 256" transform="translate(40 43)" fill="none" stroke="#fff" stroke-width="1">
      <path d="M3,0h9a3,3,0,0,1,3,3V14a1,1,0,0,1-1,1H3a3,3,0,0,1-3-3V3A3,3,0,0,1,3,0Z" stroke="none"/>
      <path d="M3,.5h9A2.5,2.5,0,0,1,14.5,3V14a.5.5,0,0,1-.5.5H3A2.5,2.5,0,0,1,.5,12V3A2.5,2.5,0,0,1,3,.5Z" fill="none"/>
    </g>
  </g>
</svg>